# xmcd
#
# Track frame offsets:
#	150
#	49270
#	108952
#	146258
#
# Disc length: 2753 seconds
# Revision: 0
# Processed by: cddbd v1.5.2PL0 Copyright (c) Steve Scherf et al.
# Submitted via: dBpowerAMP V12.0
#
DISCID=2e0abf04
DTITLE=Larry Crane - The Goals and Resistance Course Bonus Session 2000-11-16 CD 02
DYEAR=2000
DGENRE=Speech
TTITLE0=The G and R Course Bonus Session 2000-11-16 pt 5
TTITLE1=The G and R Course Bonus Session 2000-11-16 pt 6
TTITLE2=The G and R Course Bonus Session 2000-11-16 pt 7
TTITLE3=The G and R Course Bonus Session 2000-11-16 pt 8
EXTD=
EXTT0=
EXTT1=
EXTT2=
EXTT3=
PLAYORDER=
